<?xml version="1.0" encoding="UTF-8" standalone="no"?>
<svg width="32" height="32" viewBox="0 0 32 32" fill="none" xmlns="http://www.w3.org/2000/svg">
  <!-- Background -->
  <rect width="32" height="32" rx="6" fill="#4CAF50"/>
  <!-- Dollar Sign -->
  <path d="M16 7C15.4477 7 15 7.44772 15 8V9H13C12.4477 9 12 9.44772 12 10C12 10.5523 12.4477 11 13 11H15V21H13C12.4477 21 12 21.4477 12 22C12 22.5523 12.4477 23 13 23H15V24C15 24.5523 15.4477 25 16 25C16.5523 25 17 24.5523 17 24V23H19C19.5523 23 20 22.5523 20 22C20 21.4477 19.5523 21 19 21H17V11H19C19.5523 11 20 10.5523 20 10C20 9.44772 19.5523 9 19 9H17V8C17 7.44772 16.5523 7 16 7Z" fill="white"/>
</svg>